<?xml version="1.0" encoding="UTF-8"?>
<svg id="Capa_2" data-name="Capa 2" xmlns="http://www.w3.org/2000/svg" viewBox="0 0 136.27 132.18">
  <g id="Capa_1-2" data-name="Capa 1">
    <path d="m136.27,94.36c-11.65,22.47-35.12,37.82-62.18,37.82-38.66,0-70-31.34-70-70C4.09,35.12,19.44,11.65,41.91,0c-5,9.64-7.82,20.58-7.82,32.18,0,38.66,31.34,70,70,70,11.6,0,22.54-2.82,32.18-7.82Z"/>
    <path d="m23.63,114.67l-7.15,7.23h.14l-8.24,8.31H.14v-8.31h-.14l8.24-8.32h-.1l7.37-7.43c0,1.43,6.78,8.52,8.12,8.52Z"/>
    <path d="m83.51,56.64l-1.68,1.77-8.24,8.31-8.19,8.32-6.12,6.17c-1.51,0-8.02-6.65-8.02-8.44l5.99-6.05,8.19-8.31,8.24-8.31,2.27-2.24c.67.08,2.99.72,5.18,3.35,1.87,2.24,2.36,4.66,2.38,5.43Z"/>
    <path d="m115.24,24.43l-8.24,8.31-3.63,3.81c-1.17-.35-3.22-1.12-5.23-2.87-2.09-1.81-3.15-3.81-3.65-4.94l4.37-4.31,8.24-8.32h8.24l-.1,8.32Z"/>
    <path d="m94.38,33.51c-3.79-4.53-6.11-10.69-6.2-17.47-.02,1.06-.09,2.13-.21,3.17-.67,5.64-2.91,10.71-6.2,14.55-3.55,4.18-8.31,6.92-13.59,7.34,5.26.43,10,3.14,13.55,7.32,3.22,3.72,5.45,8.63,6.17,14.08.17,1.16.26,2.38.28,3.59.09-6.73,2.41-12.84,6.18-17.34,3.56-4.35,8.41-7.19,13.82-7.64-5.38-.43-10.24-3.27-13.8-7.59Zm-5.43,8.35c-.47.45-.76,1.06-.77,1.73,0-.12-.01-.24-.03-.36-.1-.54-.37-1.03-.78-1.41-.44-.41-1.03-.68-1.69-.73.66-.04,1.26-.31,1.7-.73.41-.38.69-.89.77-1.45.02-.11.03-.21.03-.32.01.68.3,1.29.77,1.75.45.43,1.06.71,1.73.75-.68.05-1.28.33-1.73.77Z"/>
  </g>
</svg>